<?xml version="1.0" encoding="UTF-8"?>
<svg version="1.1" viewBox="0 0 1600 1600" width="1280" height="1280" xmlns="http://www.w3.org/2000/svg">
<path transform="translate(0)" d="m0 0h1600v1600h-1600v-1600z" fill="#FBFCFE"/>
<path transform="translate(779 341)" d="m0 0c0.789 0.112 1.58 0.224 2.39 0.339 2.24 0.32 4.47 0.647 6.71 0.978 1.94 0.287 1.94 0.287 3.93 0.58 2.91 0.541 2.91 0.541 3.91 1.54 18 2.57 36.3 2.3 54.4 2.31 4.18 0.00456 8.36 0.0226 12.5 0.0398 12.4 0.0486 24.8 0.0799 37.2 0.101 9.64 0.0167 19.3 0.04 28.9 0.083 4.13 0.0179 8.26 0.0304 12.4 0.0287 36.8-0.0108 74 2.19 110 12.4 1.87 0.534 1.87 0.534 3.77 1.08 17.1 5.03 33.5 11.5 49.2 19.9 0.846 0.451 1.69 0.902 2.56 1.37 2.16 1.18 4.3 2.4 6.44 3.63 0.966 0.544 1.93 1.09 2.93 1.65 6.02 3.43 11.7 7.02 17.1 11.4 0.785 0.626 1.57 1.25 2.38 1.9 2.71 2.17 5.42 4.35 8.12 6.54 0.918 0.741 1.84 1.48 2.78 2.25 2.72 2.32 5.22 4.76 7.72 7.32 0.834 0.811 1.67 1.62 2.53 2.46 7.27 7.48 13.1 16.3 18.9 25 0.762 1.14 0.762 1.14 1.54 2.29 2.64 3.98 4.97 7.94 7.02 12.3 0.725 1.4 0.725 1.4 1.46 2.82 2.98 5.79 5.56 11.5 7.68 17.7 0.559 1.61 1.16 3.2 1.82 4.77 8.64 22.5 11.3 48.2 11.3 72.1 0.00101 0.719 0.00201 1.44 0.00305 2.18-0.022 23.5-1.44 49.1-9.25 71.4-0.337 1.47-0.651 2.95-0.938 4.44-0.89 4.17-2.28 7.7-4.06 11.6-0.673 1.66-1.34 3.33-2 5-0.807 2-1.62 4-2.44 6-0.411 1.01-0.822 2.02-1.25 3.06-1.26 2.8-2.69 5.33-4.32 7.94-0.681 1.33-1.35 2.66-2 4h-2c-0.255 0.871-0.51 1.74-0.773 2.64-3.35 9.18-10.5 18.3-17.2 25.4h-2c-0.165 0.681-0.33 1.36-0.5 2.06-2.19 4.29-5.62 7.13-9.5 9.94h-2c-0.33 0.99-0.66 1.98-1 3-2.14 2.22-4.59 4.08-7 6-0.577 0.464-1.16 0.928-1.75 1.41-4.34 3.37-8.9 6.4-13.5 9.41-0.603 0.397-1.21 0.795-1.83 1.2-2.91 1.87-5.47 3.46-8.92 3.98v2c-21.6 10.4-43.3 18.7-66.1 25.8-0.887 0.277-1.77 0.553-2.69 0.838-1.18 0.365-1.18 0.365-2.39 0.738-1.81 0.497-1.81 0.497-2.82 1.65-0.241 1.79-0.422 3.59-0.578 5.39-0.107 1.15-0.213 2.31-0.323 3.49-0.173 1.88-0.173 1.88-0.349 3.81-1.08 11.1-2.52 22.1-4.38 33.1-0.11 0.662-0.22 1.32-0.334 2.01-1.85 11.1-1.85 11.1-3.04 12.2-0.472 2.73-0.902 5.45-1.31 8.19-1.1 6.96-2.6 13.6-4.65 20.4-0.918 3.05-1.75 6.11-2.54 9.19-1.56 6.07-3.35 11.9-5.58 17.8-0.819 2.18-1.54 4.36-2.23 6.58-2.44 7.45-5.65 14.7-8.69 21.9-0.454 1.09-0.908 2.18-1.38 3.3-2.23 5.18-4.69 10.2-7.12 15.3-0.486 1.02-0.972 2.05-1.47 3.1-0.473 0.99-0.946 1.98-1.43 3-0.639 1.34-0.639 1.34-1.29 2.71-1.32 2.6-2.77 5.08-4.3 7.57-1.11 1.89-2.21 3.79-3.31 5.69-1.23 2.1-2.46 4.21-3.69 6.31-0.712 1.23-0.712 1.23-1.44 2.48-4.19 7.11-8.78 13.9-13.4 20.8-1.13 1.69-2.25 3.38-3.37 5.08-1.49 2.2-2.9 3.84-4.8 5.65-0.66 0.99-1.32 1.98-2 3h-2c-0.262 0.732-0.523 1.46-0.793 2.22-1.23 2.82-2.61 4.88-4.52 7.28-0.86 1.1-0.86 1.1-1.74 2.22-2.19 2.57-4.55 4.9-6.95 7.28-1.36 1.38-2.71 2.76-4.07 4.15-2.1 2.14-4.22 4.28-6.33 6.42-1.1 1.11-2.2 2.23-3.29 3.35-6.57 6.72-13.2 12.8-20.8 18.3-2.05 1.51-3.7 3-5.46 4.81-2.73 2.15-5.56 4.16-8.38 6.19-0.803 0.579-1.61 1.16-2.43 1.76-5.66 4.05-11.4 7.82-17.4 11.4-1.97 1.19-3.91 2.44-5.82 3.73-2.73 1.79-5.42 3.28-8.35 4.71-3.48 1.7-6.96 3.41-10.4 5.2-9.2 4.76-18.4 8.66-28.2 12-1.34 0.472-1.34 0.472-2.7 0.954-46 16.2-92.8 19.8-141 17.1-0.783-0.0434-1.57-0.0868-2.37-0.131-2.22-0.126-4.44-0.259-6.66-0.396-1.28-0.0786-2.57-0.157-3.89-0.238-3.01-0.297-3.01-0.297-5.01-1.3-1.55-0.22-3.12-0.393-4.68-0.543-21.9-2.26-43.5-6.14-64.3-13.5-0.926-0.315-1.85-0.629-2.8-0.953-12.3-4.31-24.3-9.41-35.9-15.4-2.09-1.07-4.19-2.12-6.3-3.13-7.51-3.6-14.4-7.88-21.3-12.5-2.37-1.55-4.79-3.02-7.21-4.51-10-6.41-19-13.9-27.7-22-2.3-2.15-4.64-4.23-7.03-6.29-7.66-6.66-7.66-6.66-10.7-10.2v-2l-1.8-0.781c-2.38-1.32-3.71-2.64-5.45-4.72-0.521-0.608-1.04-1.22-1.58-1.84-1.17-1.66-1.17-1.66-1.17-3.66h-2c-1.9-2.29-3.68-4.6-5.44-7-0.533-0.722-1.07-1.44-1.61-2.19-1.66-2.26-3.31-4.54-4.95-6.81-0.74-1.02-0.74-1.02-1.49-2.07-6.89-9.61-12.9-19.5-18.5-29.9-0.39-0.719-0.779-1.44-1.18-2.18-4.59-8.47-9.03-17-12.8-25.8l-1.27-2.95c-2.43-5.72-4.68-11.5-6.77-17.3-0.641-1.8-1.29-3.59-1.96-5.38-2.24-6.03-4.22-12.1-6.07-18.3-0.766-2.49-1.61-4.91-2.5-7.36-1.57-4.62-2.38-9.36-3.22-14.2-0.746-4.2-1.62-8.34-2.65-12.5-2.28-9.19-3.88-18.4-5.13-27.7-0.104-0.766-0.207-1.53-0.314-2.32-9.6-71.7-7.91-146 10.9-216 0.414-1.62 0.827-3.24 1.24-4.86 5.74-22.2 14.2-43.4 23.8-64.1 0.783-1.73 1.57-3.46 2.35-5.19 4.59-10 9.79-19.5 15.5-28.9 1.63-2.7 3.19-5.45 4.76-8.19 6.34-10.9 13.5-21.4 21.4-31.2 1.93-2.43 3.68-4.93 5.42-7.5 2.59-3.73 5.26-6.87 8.56-10 1.01-1.16 2.01-2.32 3-3.5 2.53-2.99 5.19-5.77 8-8.5 0.825-0.825 1.65-1.65 2.5-2.5l7.5-7.5c0.598-0.61 1.2-1.22 1.81-1.85 11.1-11.2 23.3-21.1 36.2-30.2 0.9-0.639 0.9-0.639 1.82-1.29 8.12-5.75 16.3-11.1 25-15.9 2.78-1.56 5.47-3.2 8.16-4.89 4.95-3 10.2-5.2 15.5-7.38 2.55-1.09 4.98-2.22 7.44-3.47 21.8-11.1 48.2-18.8 72.5-21.6 3.39-0.07 3.39-0.07 4.58-1.46 1.72-0.288 3.45-0.516 5.19-0.719 1.62-0.191 1.62-0.191 3.28-0.385 1.75-0.196 1.75-0.196 3.53-0.396 1.19-0.134 2.38-0.268 3.6-0.406 32.1-3.52 63.5-2.07 95.5 2.47z" fill="#000204"/>
<path transform="translate(721,370)" d="m0 0c0.0171 67.8 0.033 136 0.0423 203 1.38e-4 1 2.76e-4 2 4.18e-4 3.04 0.00299 21.8 0.00576 43.6 0.0083 65.3 0.00125 10.7 0.00254 21.4 0.00387 32 1.31e-4 1.06 2.62e-4 2.13 3.96e-4 3.22 0.00427 34.5 0.0118 69 0.021 103 0.00942 35.4 0.0156 70.8 0.0176 106 2.88e-4 5 6.14e-4 9.99 9.62e-4 15 6.74e-5 0.983 1.35e-4 1.97 2.04e-4 2.98 0.00118 15.9 0.00583 31.7 0.0118 47.6 0.00587 15.9 0.00814 31.9 0.00667 47.8-7.64e-4 9.48 0.00129 19 0.0073 28.4 0.00373 6.32 0.00388 12.6 0.00103 19-0.00152 3.61-0.0014 7.21 0.00305 10.8 0.00475 3.87 0.00188 7.75-0.00184 11.6 0.00263 1.14 0.00525 2.28 0.00796 3.45-0.00225 1.02-0.00449 2.04-0.00681 3.1 1.56e-4 0.887 3.12e-4 1.77 4.73e-4 2.69-0.125 2-0.125 2-1.12 3-10.7 0.534-21.5-0.244-32.1-0.812-1.23-0.0648-1.23-0.0648-2.49-0.131-11.1-0.595-22.2-1.38-33.3-2.56-1.69-0.178-1.69-0.178-3.42-0.359-5.42-0.615-10.4-1.48-15.6-3.14-2.04-0.495-4.08-0.975-6.12-1.44-1.12-0.257-2.24-0.513-3.4-0.777-2.3-0.518-4.59-1.03-6.89-1.54-6.35-1.42-12.5-3.08-18.6-5.25-3-0.982-6-1.96-9.01-2.94-3.4-1.21-6.68-2.62-9.99-4.06-1.06-0.437-2.12-0.874-3.22-1.32-15.4-6.38-29.9-14.3-43.5-24.1-2.35-1.69-2.35-1.69-5.12-3.2-0.728-0.468-1.46-0.936-2.21-1.42v-2c-1.65-0.66-3.3-1.32-5-2v-2c-0.804-0.268-1.61-0.536-2.44-0.812-1.27-0.588-1.27-0.588-2.56-1.19l-1-3c-1.33-0.672-2.66-1.34-4-2-2.06-1.75-4.04-3.52-6-5.38-0.852-0.797-0.852-0.797-1.72-1.61-1.77-1.66-3.53-3.34-5.28-5.01-0.538-0.515-1.08-1.03-1.63-1.56-29.8-28.7-51-66.5-63.9-106l-0.921-2.79c-5.65-17.2-10.8-35-13.1-53.1-0.418-2.99-0.418-2.99-1.38-6.23-1.74-6.79-2.31-13.8-3.07-20.8-0.0865-0.78-0.173-1.56-0.262-2.36-6.18-56.4-4.49-113 5.26-169 0.179-1.03 0.179-1.03 0.362-2.09 2.5-14.3 5.92-28.3 10.4-42.1 0.34-1.06 0.68-2.11 1.03-3.2 4.08-12.5 8.97-24.6 14.3-36.5 1.11-2.51 2.13-5.05 3.15-7.59 2.08-5.02 4.38-9.89 6.81-14.8 0.328-0.658 0.657-1.32 0.995-1.99 5.23-10.3 11.1-20.3 17.9-29.7 0.472-0.788 0.944-1.58 1.43-2.39 3.73-6.2 8.06-12 12.6-17.6 1.79-2.55 3.56-5.12 5.32-7.7 1.46-2 2.91-3.59 4.68-5.3 1.81-2.11 3.6-4.23 5.38-6.36 0.802-0.814 0.802-0.814 1.62-1.64h2c0.227-0.536 0.454-1.07 0.688-1.62 4.04-7.31 10.6-12.4 17.1-17.6 2.24-1.74 2.24-1.74 4.06-3.62 1.97-1.97 3.98-3.84 6.06-5.69 0.637-0.567 1.27-1.13 1.93-1.72 2.62-2.12 5.38-3.93 8.2-5.78 2.26-1.58 4.51-3.2 6.75-4.81 1.24-0.887 2.48-1.77 3.72-2.66 2.1-1.5 4.19-3.01 6.27-4.52 5.85-4.2 11.9-7.66 18.3-11 1.34-0.731 2.68-1.46 4.02-2.2 8.47-4.62 16.9-8.54 26-11.8 1.67-0.658 3.34-1.32 5-2 0.806-0.321 1.61-0.642 2.44-0.973 1.8-0.725 3.6-1.46 5.4-2.21 24.8-10 51.7-13.4 78.2-15.7 0.764-0.0676 1.53-0.135 2.32-0.205 2.18-0.189 4.35-0.366 6.53-0.537 1.25-0.0991 2.5-0.198 3.79-0.3 3.01-0.0751 5.39 0.275 8.3 0.917z" fill="#FCFDFF"/>
<path transform="translate(763 376)" d="m0 0c0.993-0.00826 0.993-0.00826 2.01-0.0167 2.15-0.0117 4.31-0.00537 6.46 0.00497 0.728 0.00116 1.46 0.00232 2.21 0.00351 14.2 0.0449 27.4 1.26 40.7 6.31 1.31 0.453 2.62 0.901 3.93 1.35 13.1 4.48 25.2 10.1 37.3 16.7 1.47 0.789 2.97 1.54 4.47 2.28 9.87 4.98 18.5 12 27.3 18.6 1.31 0.986 2.62 1.97 3.94 2.96 4.99 3.77 9.7 7.54 14.1 12 0.825 0.825 1.65 1.65 2.5 2.5l12.5 12.5c0.517 0.497 1.03 0.994 1.57 1.51 4.34 4.22 8.11 8.66 11.7 13.5 0.56 0.739 1.12 1.48 1.7 2.24 5.3 7.06 10.3 14.3 15 21.8 0.365 0.573 0.73 1.15 1.11 1.74 10 15.9 19.1 32.8 25.9 50.3 0.304 0.786 0.607 1.57 0.92 2.38 7.54 19.7 13.1 39.6 17.6 60.2 0.325 1.48 0.664 2.96 1.02 4.43 1.74 7.22 2.68 14.6 3.68 21.9 0.313 2.29 0.64 4.59 0.967 6.88 3.39 24.4 4.16 48.8 3.99 73.4-0.021 3.49-0.0297 6.99-0.0397 10.5-0.021 6.77-0.0548 13.5-0.0977 20.3-11.9 1.92-23.7 3.5-35.8 4.12-1.22 0.0735-2.43 0.147-3.68 0.223-27.4 1.55-54.7 1.81-82.1 1.79-4.54-0.00259-9.07-1.7e-4 -13.6 0.00139-7.57 0.0018-15.1-5.28e-4 -22.7-0.00534-8.75-0.0055-17.5-0.00363-26.3 0.00183-7.57 0.00453-15.1 0.00519-22.7 0.00256-4.5-0.00156-9-0.00177-13.5 0.00154-4.2 0.00287-8.4 9.12e-4 -12.6-0.00489-1.54-0.00133-3.09-9.33e-4 -4.63 0.00126-2.1 0.00271-4.19-6.67e-4 -6.29-0.00568-1.17-3.77e-4 -2.35-7.54e-4 -3.56-0.00114-2.61-0.126-2.61-0.126-3.61-1.13-0.0996-1.96-0.127-3.92-0.129-5.88-0.00322-1.29-0.00645-2.57-0.00977-3.9 0.00147-1.45 0.00304-2.89 0.00469-4.34-0.00187-1.52-0.00417-3.04-0.00687-4.56-0.00615-4.2-0.00598-8.4-0.00481-12.6 2.03e-4 -4.52-0.00531-9.05-0.0101-13.6-0.00832-8.87-0.0111-17.7-0.0116-26.6-4.74e-4 -7.2-0.00252-14.4-0.0057-21.6-0.00881-20.4-0.0134-40.8-0.0127-61.2 4e-5 -1.1 7.99e-5 -2.2 1.21e-4 -3.34 4.09e-5 -1.1 8.18e-5 -2.2 1.24e-4 -3.34 4.07e-4 -17.9-0.00917-35.8-0.0233-53.6-0.0143-18.3-0.0213-36.7-0.0204-55 3.33e-4 -10.3-0.00245-20.6-0.0132-30.9-0.00908-8.77-0.0113-17.5-0.00449-26.3 0.00328-4.48 0.00327-8.96-0.00535-13.4-0.0078-4.09-0.0065-8.19 0.00228-12.3 0.00155-1.49-3.32e-4 -2.97-0.00586-4.46-0.00698-2.01-6.16e-4 -4.02 0.00656-6.03-2.17e-4 -1.12-4.35e-4 -2.24-6.59e-4 -3.39 0.532-5.57 4.14-4.88 8.85-4.91z" fill="#FCFDFF"/>
<path transform="translate(1e3 772)" d="m0 0c1.55 1.55 1.17 2.97 1.2 5.13-0.077 7-1.2 13.8-2.32 20.7-0.111 0.697-0.223 1.39-0.337 2.11-4.66 29-11.7 57.2-21.2 85-0.522 1.55-0.522 1.55-1.05 3.13-2.21 6.33-4.87 12.3-7.96 18.2-1.23 2.4-2.35 4.81-3.42 7.28-6.63 15.1-14.9 29.6-24 43.4-1.7 2.6-3.32 5.23-4.91 7.89-0.681 1.03-1.36 2.06-2.06 3.12h-2c-0.233 0.705-0.467 1.41-0.707 2.14-1.54 3.42-3.54 5.83-5.98 8.68-0.451 0.529-0.903 1.06-1.37 1.6-1.31 1.53-2.63 3.06-3.94 4.58-0.592 0.705-1.18 1.41-1.79 2.14-4.93 5.81-10.4 11.1-15.8 16.5-1.4 1.38-2.77 2.79-4.14 4.2-2.09 2.03-3.73 2.93-6.27 4.21-0.33 0.99-0.66 1.98-1 3-1.98 1.74-3.96 3.35-6.06 4.94-0.621 0.478-1.24 0.956-1.88 1.45-1.33 1.02-2.66 2.04-4 3.05-2.04 1.55-4.06 3.11-6.09 4.67-8.05 6.17-16.2 11.8-25 16.9-0.898 0.519-1.8 1.04-2.72 1.57-15.6 8.74-32.9 17-50.4 20.7-2.41 0.59-4.64 1.3-6.98 2.11-5.44 1.85-11 3.07-16.6 4.28-1.01 0.225-2.01 0.45-3.05 0.682-9.46 2.05-9.46 2.05-14.3 1.63-1.64-1.64-1.13-3.48-1.13-5.74-0.00322-1.03-0.00645-2.06-0.00977-3.13 0.00155-1.15 0.0031-2.29 0.00469-3.48-0.00227-1.21-0.00453-2.42-0.00687-3.66-0.00526-3.37-0.00598-6.74-0.00481-10.1 2.03e-4 -3.63-0.00531-7.25-0.0101-10.9-0.00832-7.11-0.0111-14.2-0.0116-21.3-4.74e-4 -5.78-0.00253-11.6-0.0057-17.3-0.00881-16.4-0.0134-32.7-0.0127-49.1 4e-5 -0.883 7.99e-5 -1.77 1.21e-4 -2.68 4.09e-5 -0.884 8.18e-5 -1.77 1.24e-4 -2.68 4.07e-4 -14.3-0.00917-28.7-0.0233-43-0.0143-14.7-0.0213-29.4-0.0204-44.1 3.33e-4 -8.26-0.00244-16.5-0.0132-24.8-0.00908-7.03-0.0113-14.1-0.00449-21.1 0.00328-3.59 0.00327-7.18-0.00535-10.8-0.00924-3.89-0.00312-7.77 0.00463-11.7-0.00514-1.15-0.0103-2.29-0.0156-3.47 0.0069-1.55 0.0069-1.55 0.0139-3.13-2.17e-4 -0.898-4.35e-4 -1.8-6.59e-4 -2.72 0.25-2.15 0.25-2.15 2.25-4.15 4.11-1.17 8.13-1.13 12.4-1.14 0.734-0.00353 1.47-0.00705 2.22-0.0107 2.45-0.0107 4.91-0.0144 7.36-0.0181 1.76-0.00631 3.53-0.0131 5.29-0.0203 3.8-0.0147 7.6-0.0264 11.4-0.0359 6.04-0.0155 12.1-0.0395 18.1-0.0649 17.2-0.071 34.4-0.13 51.5-0.182 9.49-0.0286 19-0.0641 28.5-0.107 5-0.0221 10-0.0407 15-0.0504 27-0.0544 53.9-0.31 80.8-3.76 4.18-0.532 8.24-0.77 12.4-0.611z" fill="#FCFDFF"/>
<path transform="translate(881,376)" d="m0 0c9.91-0.0471 19.8-0.0822 29.7-0.104 4.61-0.0103 9.21-0.0242 13.8-0.0473 21.2-0.103 42.2 0.092 63.3 1.89 2.19 0.185 4.38 0.356 6.57 0.518 1.64 0.124 1.64 0.124 3.32 0.25 0.984 0.0717 1.97 0.143 2.98 0.217 2.26 0.279 2.26 0.279 3.26 1.28 1.55 0.273 3.1 0.491 4.66 0.684 0.958 0.123 1.92 0.246 2.9 0.373 2.02 0.251 4.03 0.501 6.05 0.75 5.32 0.685 10.2 1.63 15.4 3.19 1.91 0.467 3.82 0.921 5.73 1.37 1.05 0.246 2.1 0.492 3.19 0.746 2.16 0.503 4.32 1 6.48 1.5 9.52 2.24 18.9 4.74 27.6 9.39 0.691 0.263 1.38 0.526 2.09 0.797 17.4 7.21 32.9 17.6 46.9 30.2 0.927 0.83 1.85 1.66 2.81 2.52 12.2 11.5 21.4 25.4 28.3 40.7 0.901 1.92 1.88 3.79 2.87 5.67 2.29 4.56 3.75 9.28 5.17 14.2 0.26 0.851 0.519 1.7 0.787 2.58 1.15 3.86 2.13 7.6 2.58 11.6 0.344 3.8 0.344 3.8 1.45 7.29 1.13 3.98 1.65 7.8 2.07 11.9 0.0823 0.779 0.165 1.56 0.25 2.36 2.81 27.7 2.43 56-3.31 83.3-0.174 0.841-0.348 1.68-0.527 2.55-5.23 24.8-15.3 48.7-31.5 68.5-0.469 0.585-0.938 1.17-1.42 1.77-3.8 4.59-8.01 8.42-12.6 12.2-1.39 1.19-1.39 1.19-2.82 2.41-1.45 1.22-1.45 1.22-2.93 2.47-1.35 1.14-1.35 1.14-2.73 2.3-2.31 1.67-3.74 2.42-6.52 2.82v2c-5.75 3-5.75 3-8 3v2c-19.6 9.45-19.6 9.45-29 13-1.6 0.667-3.21 1.33-4.81 2-16.7 6.64-16.7 6.64-24.2 6-2-2-2-2-2.2-4.75 0.0232-1.17 0.0464-2.34 0.0703-3.55 0.0176-1.34 0.0348-2.69 0.0518-4.03 0.0124-0.718 0.0249-1.44 0.0377-2.17 0.42-26.5-1.01-52.9-4.03-79.3-0.132-1.15-0.132-1.15-0.266-2.33-0.184-7.51-0.184-7.51-2.67-13.9-0.262-1.86-0.518-3.71-0.747-5.57-3.05-24-10.1-47.7-18.3-70.4-0.368-1.03-0.735-2.06-1.11-3.13-5.24-14.6-11-28.4-18.8-41.9-1.04-1.96-1.04-1.96-1.88-4.17-6.09-14.6-16.1-27.9-25.2-40.8-0.754-1.07-1.51-2.14-2.29-3.25-7.12-9.97-14.8-19.1-23.6-27.5-2.09-2.21-2.09-2.21-2.09-4.21h-2c-1.23-1.29-1.23-1.29-2.62-3.06-3.44-4.13-7.28-7.48-11.4-10.9-1.12-0.965-2.23-1.93-3.34-2.9-11.1-9.65-22.6-18.7-35.6-25.7-0.684-0.468-1.37-0.936-2.07-1.42v-3z" fill="#FCFDFF"/>
<path transform="translate(657 1176)" d="m0 0c4.95 3.36 8.13 7.15 9.79 12.9 1.47 7.98 1.61 15.6-2 23-1.48 1.77-1.48 1.77-3 3h-2c-0.33 0.99-0.66 1.98-1 3-3.2 1.28-6.53 1.17-9.94 1.19-1.02 0.0142-2.04 0.0284-3.09 0.043-5.43-0.421-9.01-2.58-13-6.23-4.41-5.2-4.21-12.1-3.86-18.7 0.942-6.71 3.73-11 8.86-15.3 5.75-4.14 12.6-6.16 19.2-2.93z" fill="#FCFDFF"/>
<path transform="translate(965 1276)" d="m0 0c0.955-0.00258 1.91-0.00516 2.89-0.00781 1 0.00773 2 0.0155 3.03 0.0234 1.47-0.0116 1.47-0.0116 2.97-0.0234 12.6 0.0337 12.6 0.0337 17.1 3.68 4.49 6.08 5.04 11.2 4.26 18.6-1.99 3.91-3.37 5.58-7 8-2.44 0.487-2.44 0.487-5.29 0.816-1.02 0.124-2.05 0.249-3.1 0.377-1.07 0.122-2.13 0.244-3.23 0.369-2.12 0.248-4.23 0.499-6.35 0.754-0.939 0.108-1.88 0.215-2.85 0.326-2.15 0.135-2.15 0.135-3.18 1.36-0.157 1.49-0.251 2.98-0.316 4.47-0.0419 0.899-0.0838 1.8-0.127 2.72-0.059 1.42-0.059 1.42-0.119 2.87-0.0648 1.42-0.0648 1.42-0.131 2.88-0.106 2.35-0.208 4.71-0.307 7.06-1.65-0.33-3.3-0.66-5-1-0.0506-7.23-0.0857-14.5-0.11-21.7-0.0101-2.46-0.0237-4.92-0.041-7.38-0.0242-3.53-0.0356-7.06-0.0444-10.6-0.0103-1.11-0.0206-2.21-0.0313-3.35-1.51e-4 -1.02-3.02e-4 -2.04-4.58e-4 -3.09-0.00444-0.902-0.00888-1.8-0.0135-2.73 0.495-4.48 3.16-4.43 7-4.44z" fill="#000204"/>
<path transform="translate(492,1275)" d="m0 0c1.66 0.087 1.66 0.087 3.36 0.176 5.45 0.522 9.85 1.19 14 5.01 3.67 4.98 3.45 10.4 3.42 16.3-0.912 4.33-2.28 5.78-5.73 8.49-4.53 2.56-9.66 2.62-14.8 3.06-1.72 0.154-3.45 0.311-5.17 0.473-0.759 0.0658-1.52 0.132-2.3 0.199-1.8 0.0883-1.8 0.0883-2.78 1.27-0.157 1.49-0.251 2.98-0.316 4.47-0.0419 0.899-0.0838 1.8-0.127 2.72-0.059 1.42-0.059 1.42-0.119 2.87-0.0648 1.42-0.0648 1.42-0.131 2.88-0.106 2.35-0.208 4.71-0.307 7.06-1.65-0.33-3.3-0.66-5-1-0.127-7.21-0.214-14.4-0.275-21.6-0.0252-2.45-0.0593-4.91-0.103-7.36-0.0605-3.52-0.089-7.04-0.111-10.6-0.0258-1.1-0.0516-2.2-0.0782-3.33-0.00103-2.79 0.0324-5.37 0.566-8.12 4.65-4.29 10-3.4 16-3z" fill="#000204"/>
<path transform="translate(1043,1275)" d="m0 0c2.98 3.29 4.64 6.33 6.09 10.5 1.16 3.18 2.5 6.26 3.85 9.37 4.01 9.3 7.64 18.6 10.9 28.2 0.953 2.98 0.953 2.98 3.15 4.91-0.495 0.99-0.495 0.99-1 2-2.97-0.495-2.97-0.495-6-1-0.346-1.16-0.346-1.16-0.699-2.34-0.489-1.5-0.489-1.5-0.988-3.04-0.313-0.998-0.626-2-0.949-3.02-1.14-2.72-1.14-2.72-3.55-3.94-3.47-0.814-6.62-0.887-10.2-0.848-1.27 0.00645-2.53 0.0129-3.84 0.0195-3.69 0.163-7.15 0.581-10.8 1.17-0.193 0.687-0.387 1.37-0.586 2.08-0.26 0.901-0.521 1.8-0.789 2.73-0.255 0.893-0.51 1.79-0.773 2.71-0.852 2.48-0.852 2.48-2.85 5.48-1.65-0.33-3.3-0.66-5-1 1.9-8.55 5.79-16.7 9.47-24.6 2.57-5.66 4.98-11.4 7.41-17.1 0.374-0.878 0.748-1.76 1.13-2.66 0.335-0.789 0.67-1.58 1.01-2.39 2.67-6.06 2.67-6.06 4.97-7.21z" fill="#000204"/>
<path transform="translate(696,1275)" d="m0 0c1.13 2.56 2.25 5.12 3.38 7.69 0.317 0.721 0.634 1.44 0.961 2.19 1.62 3.69 3.19 7.38 4.66 11.1 0.284 0.697 0.567 1.39 0.859 2.11 2.15 5.31 4.23 10.7 6.27 16 0.254 0.657 0.507 1.31 0.769 1.99 1.73 4.57 2.99 9.13 4.11 13.9-2.82-0.0898-2.82-0.0898-6-1-1.68-2.94-1.68-2.94-2.88-6.56-0.41-1.2-0.82-2.4-1.24-3.63-0.437-1.39-0.437-1.39-0.883-2.81-3.58-0.0581-7.17-0.0936-10.8-0.125-1.52-0.0251-1.52-0.0251-3.08-0.0508-1.47-0.00967-1.47-0.00967-2.97-0.0195-0.901-0.0105-1.8-0.0209-2.73-0.0317-2.67 0.245-4.25 0.748-6.47 2.23-1.35 2.85-1.35 2.85-2.25 6.12-0.335 1.1-0.67 2.19-1.02 3.32-0.364 1.26-0.364 1.26-0.734 2.55h-5c-1-2-1-2-0.259-4.29 0.598-1.41 0.598-1.41 1.21-2.84 0.436-1.04 0.873-2.07 1.32-3.14 0.467-1.09 0.935-2.17 1.42-3.29 0.448-1.06 0.896-2.12 1.36-3.21 2-4.73 4.04-9.43 6.16-14.1 1.94-4.34 3.37-8.77 4.77-13.3 1.49-4.04 4.03-10.8 9.03-10.8z" fill="#000204"/>
<path transform="translate(873,1170)" d="m0 0c3.4 1.4 4.84 2.83 6.75 5.94 2.34 3.68 4.79 7.23 7.38 10.8 3.31 4.51 6.43 9.11 9.49 13.8 0.601 0.895 1.2 1.79 1.82 2.71 0.556 0.839 1.11 1.68 1.68 2.54 2.08 2.77 2.08 2.77 6.88 5.27v-39c1.32-0.66 2.64-1.32 4-2 1 1 1 1 1.12 3.13-0.00222 0.939-0.00444 1.88-0.00673 2.85-7.55e-5 1.06-1.51e-4 2.12-2.29e-4 3.22-0.00516 1.15-0.0103 2.31-0.0156 3.5-0.00141 1.17-0.00283 2.35-0.00429 3.56-0.00562 3.77-0.0182 7.54-0.0309 11.3-0.00501 2.55-0.00958 5.1-0.0137 7.65-0.0111 6.26-0.0278 12.5-0.0488 18.8-5.72-0.712-5.72-0.712-8.27-3.3-0.694-0.994-1.39-1.99-2.1-3.01-0.382-0.538-0.765-1.08-1.16-1.63-1.18-1.67-2.33-3.36-3.47-5.06-0.661-0.981-1.32-1.96-2-2.97-1.3-1.95-2.59-3.9-3.88-5.85-2.43-3.65-4.91-7.27-7.43-10.9-0.421-0.613-0.842-1.23-1.28-1.86-2.51-3.6-2.51-3.6-6.41-5.46 0.0116 1.13 0.0232 2.26 0.0352 3.42 0.084 12.2-0.355 24.4-1.04 36.6-1.65-0.33-3.3-0.66-5-1-0.076-7.07-0.129-14.1-0.165-21.2-0.0151-2.4-0.0356-4.81-0.0615-7.21-0.0363-3.45-0.0534-6.91-0.0667-10.4-0.0155-1.08-0.031-2.16-0.0469-3.27-2.27e-4 -1-4.53e-4 -2-6.87e-4 -3.03-0.00666-0.882-0.0133-1.76-0.0202-2.67 0.431-2.7 1.27-3.57 3.36-5.26z" fill="#000204"/>
<path transform="translate(601,1276)" d="m0 0c2.76 0.336 4.52 0.556 6.6 2.47 0.483 0.67 0.967 1.34 1.46 2.03 0.886 1.21 0.886 1.21 1.79 2.45 0.709 1.01 1.42 2.02 2.15 3.05 0.945 1.33 1.89 2.66 2.84 3.99 3.88 5.48 7.75 11 11.6 16.5 0.69 0.978 1.38 1.96 2.09 2.96 0.588 0.844 1.18 1.69 1.78 2.56 1.81 2.37 1.81 2.37 5.72 4v-38c1.32-0.66 2.64-1.32 4-2 2 2 2 2 2.24 4.21-0.00666 1.38-0.00666 1.38-0.0135 2.79-1.51e-4 1.04-3.02e-4 2.08-4.58e-4 3.15-0.0103 1.13-0.0206 2.25-0.0313 3.42-0.00283 1.15-0.00566 2.3-0.00858 3.49-0.0112 3.69-0.0363 7.38-0.0617 11.1-0.01 2.5-0.0192 4.99-0.0273 7.49-0.0221 6.13-0.0556 12.3-0.0977 18.4-5.69-0.685-5.69-0.685-8.49-3.52-0.812-1.08-1.61-2.18-2.38-3.29-0.641-0.873-0.641-0.873-1.29-1.76-3.47-4.77-6.72-9.69-9.95-14.6-2.3-3.41-4.78-6.64-7.34-9.86-1.08-1.36-2.12-2.76-3.12-4.19-0.471-0.578-0.941-1.15-1.43-1.75h-2c-0.33 12.9-0.66 25.7-1 39h-5c-1.85-1.85-1.13-4.88-1.13-7.36-0.00132-0.653-0.00264-1.31-4e-3 -1.98-0.00193-2.14 0.00444-4.27 0.0118-6.41 8.86e-4 -0.721 0.00177-1.44 0.00269-2.19 0.0174-12 0.364-24 1.12-36.1z" fill="#000204"/>
<path transform="translate(705,1170)" d="m0 0c3.73 1.5 5.64 3.63 8.12 6.75 0.683 0.84 1.37 1.68 2.07 2.55 1.8 2.7 1.8 2.7 2.86 5.97 0.312 0.902 0.624 1.8 0.945 2.73 0.99 0.33 1.98 0.66 3 1 1.32 1.68 1.32 1.68 2.69 3.88 2.41 3.76 4.9 7.43 7.5 11.1 0.654 0.917 1.31 1.83 1.98 2.78 1.8 2.48 1.8 2.48 4.83 4.29 0.0146-1.17 0.0292-2.34 0.0442-3.55 0.0579-4.34 0.135-8.67 0.218-13 0.0333-1.88 0.0613-3.76 0.084-5.63 0.0335-2.7 0.0858-5.39 0.142-8.09 0.00958-1.26 0.00958-1.26 0.0194-2.55 0.06-2.37 0.06-2.37 0.492-6.17 0.99-0.66 1.98-1.32 3-2 4.12 4.12 2.09 20.8 2.1 26.7-0.00282 3.28-0.0181 6.56-0.0352 9.84-0.00503 1.71-0.00959 3.42-0.0137 5.13-0.0108 4.12-0.028 8.25-0.0488 12.4-5.71-0.704-5.71-0.704-8.31-3.37-0.703-1.01-1.41-2.02-2.13-3.07-0.382-0.539-0.764-1.08-1.16-1.63-1.15-1.63-2.28-3.28-3.41-4.93-1.23-1.75-2.46-3.5-3.69-5.25-0.558-0.806-1.12-1.61-1.69-2.44-2-2.86-4.1-5.64-6.2-8.42-6.42-8.52-6.42-8.52-6.42-10.9h-3c-0.33 13.5-0.66 27.1-1 41-1.65-0.33-3.3-0.66-5-1-0.0506-7.37-0.0857-14.7-0.11-22.1-0.0101-2.51-0.0237-5.02-0.041-7.53-0.0242-3.6-0.0356-7.2-0.0444-10.8-0.0103-1.13-0.0206-2.25-0.0313-3.42-1.51e-4 -1.04-3.02e-4 -2.08-4.58e-4 -3.15-0.00444-0.919-0.00888-1.84-0.0135-2.79 0.241-2.21 0.241-2.21 2.24-4.21z" fill="#000204"/>
<path transform="translate(660 1172)" d="m0 0c5.81 3.26 9.27 7.61 11.8 13.7 2.21 8.35 2.47 19.1-1.13 27-3.1 5.1-7.5 9.3-13.4 10.9-7.95 1.09-15.6 1.41-22.6-2.64-1.58-0.866-1.58-0.866-3.19-1.75-4.19-3.36-6.11-7.14-7.81-12.2-0.693-11.2-0.124-19.8 7-29 8.44-7.97 18.4-10.8 29.3-6zm-28.2 13c-3.93 6.8-3.94 15.5-2.16 23 2.04 4.18 4.95 7.65 9 10 3.33 1.06 6.46 1.17 9.94 1.19 1.02 0.0142 2.04 0.0284 3.09 0.043 3.04-0.236 5.22-0.948 7.97-2.23v-2c0.598-0.206 1.2-0.412 1.81-0.625 3.58-2.25 4.75-5.68 5.78-9.68 1.12-7.45 0.389-15.5-3.42-22.1-1.75-2.36-3.75-3.96-6.18-5.58-0.99-0.66-1.98-1.32-3-2-9.19-1.75-17.3 2.83-22.8 10z" fill="#000204"/>
<path transform="translate(852 1360)" d="m0 0c1.58-0.00136 3.16-0.00314 4.74-0.00531 4.27-0.00454 8.54-0.0028 12.8 3.79e-4 4.48 0.00254 8.95 1.82e-4 13.4-0.00139 7.51-0.00182 15 5.7e-4 22.5 0.00534 8.68 0.00545 17.4 0.00367 26-0.00183 7.46-0.00454 14.9-0.00518 22.4-0.00256 4.45 0.00156 8.91 0.00177 13.4-0.00154 4.18-0.00289 8.36-8.89e-4 12.5 0.00489 1.54 0.00132 3.07 9.41e-4 4.61-0.00126 2.09-0.00273 4.19 6.9e-4 6.28 0.00568 1.76 5.66e-4 1.76 5.66e-4 3.55 0.00114 2.54 0.107 4.55 0.447 6.98 1.13 2.47 0.15 4.92 0.256 7.39 0.316 0.705 0.0208 1.41 0.0416 2.14 0.063 2.24 0.0652 4.48 0.124 6.72 0.183 1.52 0.0432 3.05 0.0868 4.57 0.131 3.73 0.107 7.45 0.208 11.2 0.307v1c-22.7 0.968-45.4 1.15-68.1 1.13-4.79-0.00258-9.58-1.72e-4 -14.4 0.00139-8 0.0018-16-5.35e-4 -24-0.00534-9.25-0.00549-18.5-0.00364-27.8 0.00183-7.99 0.00453-16 0.00518-24 0.00256-4.75-0.00156-9.51-0.00177-14.3 0.00154-4.44 0.00288-8.88 9.06e-4 -13.3-0.00489-1.63-0.00133-3.26-9.36e-4 -4.89 0.00126-2.22 0.00272-4.44-6.74e-4 -6.65-0.00568-1.24-3.77e-4 -2.48-7.54e-4 -3.76-0.00114-2.88-0.126-2.88-0.126-4.88-1.13v-2c8.24-1.15 16.4-1.14 24.7-1.13z" fill="#000204"/>
<path transform="translate(661 1360)" d="m0 0c4.32 0.0129 8.64 0.0137 13 0.0161 8.11 0.00611 16.2 0.0224 24.3 0.0427 9.26 0.0227 18.5 0.0334 27.8 0.0434 19 0.0207 38 0.0556 57 0.101 0.33 1.32 0.66 2.64 1 4-21.8 0.0235-43.6 0.0411-65.4 0.0518-10.1 0.00513-20.3 0.0121-30.4 0.0236-8.84 0.0101-17.7 0.0164-26.5 0.0186-4.67 0.00129-9.34 0.00425-14 0.0116-20.9 0.0318-41.7-0.131-62.6-1.11v-1c25.3-1.49 50.6-2.29 76-2.2z" fill="#000204"/>
<path transform="translate(949 1170)" d="m0 0c1.16 0.0105 2.33 0.0209 3.52 0.0317 1.89 0.00967 1.89 0.00967 3.81 0.0195 1.98 0.0251 1.98 0.0251 4 0.0508 1.34 0.01 2.68 0.0192 4.02 0.0273 3.29 0.0236 6.57 0.0566 9.86 0.0977 0.33 1.65 0.66 3.3 1 5-0.722 0.0251-1.44 0.0501-2.19 0.0759-3.25 0.116-6.5 0.238-9.75 0.362-1.14 0.0393-2.27 0.0786-3.44 0.119-1.08 0.0419-2.16 0.0838-3.27 0.127-1 0.0367-2 0.0733-3.03 0.111-2.28-0.048-2.28-0.048-3.32 1.21-0.0733 2.7-0.0922 5.37-0.0625 8.06 0.0206 2.62 0.0412 5.24 0.0625 7.94 7.59 0.33 15.2 0.66 23 1 0.33 1.65 0.66 3.3 1 5-0.692 0.0251-1.38 0.0501-2.1 0.0759-3.11 0.116-6.23 0.238-9.34 0.362-1.09 0.0393-2.18 0.0786-3.3 0.119-1.03 0.0419-2.07 0.0838-3.13 0.127-1.44 0.055-1.44 0.055-2.9 0.111-2.2-0.0363-2.2-0.0363-3.22 1.21-0.156 1.34-0.25 2.69-0.316 4.04-0.0381 0.728-0.0762 1.46-0.115 2.21-0.0647 1.4-0.0647 1.4-0.131 2.82-0.144 2.95-0.289 5.9-0.438 8.94 12.9 0.495 12.9 0.495 26 1 0.33 1.32 0.66 2.64 1 4-4.4 0.0247-8.79 0.0428-13.2 0.0549-1.5 0.00504-2.99 0.0119-4.49 0.0205-2.15 0.0121-4.29 0.0178-6.44 0.0222-1.94 0.00786-1.94 0.00786-3.92 0.0159-2.96-0.114-2.96-0.114-3.96-1.11-0.104-1.59-0.139-3.17-0.145-4.76-0.00638-1.01-0.0128-2.03-0.0193-3.07-0.00111-1.1-0.00223-2.21-0.00337-3.35-0.00499-1.69-0.00499-1.69-0.0101-3.41-0.00507-2.39-0.00741-4.77-0.00725-7.16-0.00219-3.66-0.0203-7.33-0.0393-11-0.00293-2.31-0.00492-4.63-0.00586-6.94-0.00719-1.1-0.0144-2.2-0.0218-3.34 0.00308-1.02 0.00615-2.04 0.00932-3.08-0.00143-0.899-0.00285-1.8-0.00432-2.72 0.401-3.52 1.63-4.12 5.04-4.4z" fill="#000204"/>
<path transform="translate(549 1276)" d="m0 0c1.25 0.00967 2.51 0.0193 3.8 0.0293 1.31 0.0251 2.62 0.0503 3.97 0.0762 1.34 0.0151 2.67 0.0287 4.01 0.041 3.27 0.0354 6.54 0.0848 9.81 0.146 0.33 1.32 0.66 2.64 1 4-0.651 0.0198-1.3 0.0396-1.97 0.0601-2.95 0.0952-5.89 0.205-8.84 0.315-1.02 0.0309-2.05 0.0619-3.1 0.0938-1.47 0.058-1.47 0.058-2.98 0.117-0.906 0.0314-1.81 0.0628-2.75 0.0952-2.63 0.179-2.63 0.179-5.36 2.32-0.222 2.81-0.281 5.33-0.188 8.12 0.0619 2.6 0.124 5.2 0.188 7.88 7.59 0.33 15.2 0.66 23 1 0.33 1.32 0.66 2.64 1 4-7.92 0.33-15.8 0.66-24 1-0.33 6.6-0.66 13.2-1 20h25c0.33 1.32 0.66 2.64 1 4-3.98 0.742-7.75 1.13-11.8 1.13-1.06 0.00129-2.12 0.00258-3.21 0.00391-1.63-0.0058-1.63-0.0058-3.3-0.0117-1.11 0.00387-2.22 0.00773-3.36 0.0117-1.58-0.00193-1.58-0.00193-3.19-0.00391-0.962-0.00113-1.92-0.00226-2.92-0.00342-2.22-0.129-2.22-0.129-3.22-1.13-0.138-1.55-0.209-3.1-0.253-4.66-0.0296-0.991-0.0593-1.98-0.0898-3-0.0261-1.08-0.0522-2.16-0.0792-3.27-0.0279-1.1-0.0558-2.2-0.0845-3.34-0.0565-2.34-0.11-4.67-0.161-7.01-0.082-3.58-0.186-7.16-0.29-10.7-0.0521-2.26-0.103-4.53-0.152-6.79-0.0342-1.08-0.0684-2.15-0.104-3.26-0.017-0.998-0.034-2-0.0516-3.02-0.0321-1.32-0.0321-1.32-0.0649-2.66 0.33-2.25 0.33-2.25 1.66-4.04 2.61-1.9 4.91-1.55 8.08-1.51z" fill="#000204"/>
<path transform="translate(981 1280)" d="m0 0c2.96 0.67 4.83 1.8 7.17 3.72 2.26 4.33 2.49 8.21 1.56 13-2.53 3.35-4.04 4.68-8 6-2.86 0.0965-5.7 0.139-8.56 0.125-0.781 0.00387-1.56 0.00773-2.37 0.0117-5.82-0.01-5.82-0.01-8.07-1.14-0.0871-3.1-0.14-6.21-0.188-9.31-0.0251-0.881-0.0503-1.76-0.0762-2.67-0.00967-0.848-0.0193-1.7-0.0293-2.57-0.0157-0.78-0.0314-1.56-0.0476-2.36 1.34-8.17 12.6-5.55 18.6-4.8z" fill="#FCFDFF"/>
<path transform="translate(498 1280)" d="m0 0c2.94 0.665 4.88 1.79 7.23 3.66 2.36 4.62 2.34 8.98 1.56 14.1-1.84 2.86-2.88 3.7-6.13 4.58-3.71 0.546-7.38 0.567-11.1 0.547-1.1 0.0058-1.1 0.0058-2.22 0.0117-5.4-0.01-5.4-0.01-6.53-1.14-0.277-3.12-0.232-6.25-0.25-9.38-0.0206-0.877-0.0412-1.75-0.0625-2.66-0.00516-0.843-0.0103-1.69-0.0156-2.55-0.00935-0.774-0.0187-1.55-0.0283-2.35 1.37-7.93 11.7-5.54 17.6-4.79z" fill="#FCFDFF"/>
<path transform="translate(856,1276)" d="m0 0h4c1.88 2.39 3.47 4.67 5.06 7.25 0.865 1.36 1.73 2.72 2.6 4.08 0.402 0.641 0.805 1.28 1.22 1.94 1.18 1.87 1.18 1.87 2.93 4.09 1.19 1.64 1.19 1.64 1.19 3.64 1.65 0.33 3.3 0.66 5 1 4.35-5.83 8.57-11.6 12-18h2c0.66-1.32 1.32-2.64 2-4 0.99 0.33 1.98 0.66 3 1-0.62 4.03-2.71 6.69-5 10-0.797 1.29-1.59 2.58-2.38 3.88-2.25 3.64-4.75 7.01-7.39 10.4-2.32 3.31-2.41 6.39-2.55 10.3-0.0419 1.07-0.0838 2.15-0.127 3.25-0.0393 1.12-0.0786 2.24-0.119 3.39-0.0432 1.13-0.0864 2.26-0.131 3.43-0.106 2.79-0.208 5.59-0.307 8.38-1.67 0.0427-3.33 0.0406-5 0-1-1-1-1-1.11-3.16 0.00153-0.937 0.00306-1.87 0.00464-2.84-0.0148-1.03-0.0296-2.07-0.0449-3.13-0.0243-2.17-0.0302-4.34-0.0156-6.51-0.163-8-2.16-12.9-6.83-19.4-0.652-0.975-1.3-1.95-1.98-2.95-0.544-0.758-1.09-1.52-1.65-2.3-0.87-1.23-0.87-1.23-1.76-2.49-0.986-1.38-1.98-2.75-2.98-4.12-1.13-1.58-1.13-1.58-2.63-4.14 0.33-0.99 0.66-1.98 1-3z" fill="#000204"/>
<path transform="translate(800 1276)" d="m0 0c1.65 1.59e-4 3.29 0.00586 4.94 0.0159 1.3 0.00212 1.3 0.00212 2.62 0.00429 2.77 0.00562 5.54 0.0182 8.31 0.0309 1.87 0.00501 3.75 0.00958 5.62 0.0137 4.6 0.0111 9.21 0.0283 13.8 0.0488 0.495 1.98 0.495 1.98 1 4-1.14 0.133-2.29 0.266-3.46 0.402-1.49 0.178-2.98 0.357-4.47 0.535-0.755 0.087-1.51 0.174-2.29 0.264-3.7 0.142-3.7 0.142-6.78 1.8-0.122 1.47-0.178 2.95-0.205 4.43-0.0199 0.941-0.0399 1.88-0.0604 2.85-0.0251 1.53-0.0251 1.53-0.0506 3.1-0.0208 1.04-0.0416 2.08-0.063 3.16-0.0656 3.34-0.124 6.68-0.183 10-0.0432 2.26-0.0868 4.52-0.131 6.78-0.107 5.55-0.209 11.1-0.307 16.7-1.67 0.0427-3.33 0.0406-5 0-1.61-1.61-1.17-3.38-1.21-5.61-0.0199-0.981-0.0399-1.96-0.0604-2.97-0.0167-1.07-0.0334-2.13-0.0506-3.23-0.0208-1.09-0.0416-2.17-0.063-3.29-0.0656-3.48-0.124-6.97-0.183-10.5-0.0432-2.36-0.0868-4.71-0.131-7.07-0.107-5.79-0.209-11.6-0.307-17.4h-16c0-4.41 0.166-3.97 4.69-4.11z" fill="#000204"/>
<path transform="translate(1086,1275)" d="m0 0c4 0 4 0 5.42 1.33 0.438 0.634 0.877 1.27 1.33 1.92 0.503 0.719 1.01 1.44 1.52 2.18 0.855 1.27 0.855 1.27 1.73 2.57 0.714 1.03 1.43 2.07 2.16 3.13 5.84 8.56 5.84 8.56 5.84 10.9 1.65 0.33 3.3 0.66 5 1 3.99-5.66 7.92-11.3 11.6-17.2 1.36-1.81 1.36-1.81 4.36-3.81h3c-1.43 5.22-3.82 9.06-6.88 13.4-7.39 10.1-7.39 10.1-10.4 21.8-0.0419 1.03-0.0838 2.06-0.127 3.12-0.0393 1.08-0.0786 2.16-0.119 3.27-0.0432 1.09-0.0864 2.18-0.131 3.3-0.106 2.69-0.208 5.39-0.307 8.08-1.98-0.33-3.96-0.66-6-1 0.0157-0.564 0.0314-1.13 0.0476-1.71 0.063-2.6 0.102-5.19 0.14-7.79 0.0251-0.887 0.0503-1.77 0.0762-2.69 0.117-10.6-3.77-17.1-9.83-25.6-0.59-0.845-1.18-1.69-1.79-2.56-1.09-1.56-2.18-3.12-3.28-4.67-3.37-4.81-3.37-4.81-3.37-8.96z" fill="#000204"/>
<path transform="translate(779,1170)" d="m0 0c0.99 0.33 1.98 0.66 3 1 0.33 15.5 0.66 31 1 47 7.59 0.33 15.2 0.66 23 1l2 4c-1.88 1.88-5.12 1.13-7.62 1.13-0.662 9.57e-4 -1.32 0.00191-2.01 0.0029-1.4 6.82e-4 -2.8-0.00117-4.21-0.00534-2.15-0.00535-4.31-5.44e-5 -6.46 0.00635-1.36-6.61e-4 -2.72-0.00194-4.08-0.00391-1.25-0.00113-2.49-0.00226-3.77-0.00342-2.85-0.129-2.85-0.129-3.85-1.13-0.101-2.23-0.131-4.46-0.133-6.68-0.00141-0.683-0.00282-1.37-0.00427-2.07-0.00214-2.23 0.00416-4.46 0.0121-6.68 0.00155-0.75 0.0031-1.5 0.0047-2.27 0.0214-8.75 0.0629-17.5 0.495-26.2 0.0462-1.07 0.0462-1.07 0.0933-2.16 0.284-4.65 0.284-4.65 2.53-6.9z" fill="#000204"/>
<path transform="translate(747,1276)" d="m0 0c0.99 0.33 1.98 0.66 3 1 0.33 15.5 0.66 31 1 47 7.59 0.33 15.2 0.66 23 1 1.49 2.47 1.49 2.47 3 5-4.38 0.0247-8.76 0.0429-13.1 0.0549-1.49 0.00503-2.98 0.0119-4.47 0.0205-2.14 0.0121-4.28 0.0178-6.42 0.0222-1.29 0.00524-2.58 0.0105-3.9 0.0159-3.07-0.114-3.07-0.114-5.07-1.11 0.0921-7.23 0.199-14.5 0.317-21.7 0.0384-2.46 0.0732-4.92 0.104-7.38 0.0455-3.53 0.104-7.06 0.164-10.6 0.0116-1.11 0.0231-2.21 0.035-3.35 0.0199-1.02 0.0397-2.04 0.0602-3.09 0.0133-0.902 0.0266-1.8 0.0404-2.73 0.278-2.18 0.278-2.18 2.28-4.18z" fill="#000204"/>
<path transform="translate(806 1350)" d="m0 0c1.13 0.0206 2.27 0.0412 3.44 0.0625 0.66 1.65 1.32 3.3 2 5-0.99 0.33-1.98 0.66-3 1-0.33 0.66-0.66 1.32-1 2 1.61-0.34 1.61-0.34 3.25-0.688 3.75-0.312 3.75-0.312 6.19 0.812 1.56 1.88 1.56 1.88 2.06 4.31-0.649 3.33-1.88 4.47-4.5 6.56-0.99 0.33-1.98 0.66-3 1-0.733 2.02-0.733 2.02-1 4-7.75 0.125-7.75 0.125-10-1 0.33-1.98 0.66-3.96 1-6-4.46-0.99-4.46-0.99-9-2-0.33-1.32-0.66-2.64-1-4 2.27-2.02 3.57-2.95 6.62-3.31 2.38 0.312 2.38 0.312 4.38 2.31-0.0838-0.638-0.168-1.28-0.254-1.93-0.102-0.826-0.204-1.65-0.309-2.5-0.104-0.824-0.209-1.65-0.316-2.5-0.04-0.682-0.0799-1.36-0.121-2.07 1-1 1-1 4.56-1.06z" fill="#000204"/>
<path transform="translate(693,1286)" d="m0 0c3 1 3 1 4.79 4.57 0.624 1.51 1.24 3.03 1.84 4.55 0.312 0.748 0.624 1.5 0.945 2.27 1.93 4.77 2.67 8.28 3.43 13.6-9.4 0.495-9.4 0.495-19 1-1.01-5.03-1.06-5.76 0.871-10.1 0.409-0.931 0.819-1.86 1.24-2.82 0.438-0.96 0.875-1.92 1.33-2.91 0.434-0.979 0.868-1.96 1.31-2.97 1.07-2.41 2.15-4.82 3.25-7.22z" fill="#FCFDFF"/>
<path transform="translate(1042,1287)" d="m0 0c3 1 3 1 4.54 3.84 0.504 1.21 1.01 2.41 1.53 3.66 0.507 1.19 1.01 2.37 1.54 3.59 1.4 3.91 1.4 3.91 3.4 12.9h-19c-1.12-4.47-0.848-5.03 1-9 0.495-1.15 0.99-2.31 1.5-3.5 0.495-1.15 0.99-2.31 1.5-3.5 0.526-1.36 0.526-1.36 1.06-2.75 0.938-2.25 0.938-2.25 2.94-5.25z" fill="#FCFDFF"/>
<path transform="translate(835,1170)" d="m0 0c0.99 0.33 1.98 0.66 3 1v53c-1.65-0.33-3.3-0.66-5-1-0.0506-7.23-0.0857-14.5-0.11-21.7-0.0101-2.46-0.0237-4.92-0.041-7.38-0.0242-3.53-0.0356-7.06-0.0444-10.6-0.0103-1.11-0.0206-2.21-0.0313-3.35-1.51e-4 -1.02-3.02e-4 -2.04-4.58e-4 -3.09-0.00444-0.902-0.00888-1.8-0.0135-2.73 0.241-2.18 0.241-2.18 2.24-4.18z" fill="#000204"/>
<path transform="translate(807,1362)" d="m0 0c1.98 0.495 1.98 0.495 4 1v6c-2.48-0.99-2.48-0.99-5-2 0.33-1.65 0.66-3.3 1-5z" fill="#FCFDFF"/>
</svg>
